<svg version="1.1" id="Layer_1" xmlns="http://www.w3.org/2000/svg" xmlns:xlink="http://www.w3.org/1999/xlink" x="0px" y="0px"
	 width="100%" viewBox="0 0 1024 1024" enable-background="new 0 0 1024 1024" xml:space="preserve">
<path fill="#000000" opacity="1.000000" stroke="none" 
	d="
M718.945190,532.875427 
	C720.730957,531.926147 721.983582,530.827881 723.718994,530.516663 
	C727.802490,529.784119 730.618835,532.563965 729.649780,536.543335 
	C729.454346,537.345703 729.074707,538.103638 728.774780,538.880005 
	C725.979065,546.117065 726.367249,546.720276 733.902710,547.576172 
	C735.609375,547.770081 737.605530,547.222107 739.074280,549.094788 
	C738.161499,550.891296 736.486511,550.341125 735.212158,550.167419 
	C719.190735,547.983276 703.495667,550.097107 687.743347,553.025208 
	C671.134216,556.112488 654.928406,553.895508 639.362183,547.248779 
	C637.834534,546.596497 636.211182,545.428162 634.719299,545.551636 
	C624.230225,546.420105 614.557068,541.938293 604.332886,541.173035 
	C596.001831,540.549500 594.924805,539.369690 593.639099,531.059326 
	C592.633118,524.557068 593.751038,518.098206 593.887695,511.624359 
	C593.980286,507.236145 591.797119,505.004578 587.912415,505.650970 
	C579.766663,507.006348 571.774536,505.582520 564.264343,503.482788 
	C540.734924,496.904297 516.577454,492.404053 493.655182,483.916901 
	C480.528015,479.056427 467.425079,480.728638 454.224365,480.531677 
	C451.779999,480.495148 450.116241,482.336243 448.551636,484.207306 
	C443.458893,490.297821 440.170898,497.327393 437.238892,504.617004 
	C433.503632,513.903687 427.991882,521.969666 419.708588,527.822449 
	C415.585236,530.735901 411.079346,532.967468 405.799652,532.440369 
	C403.159546,532.176697 401.386902,533.672913 399.507507,535.004211 
	C394.815491,538.327698 390.015564,540.835938 383.883514,540.585693 
	C375.012665,540.223572 371.258911,535.065979 374.229614,526.724548 
	C377.679657,517.037354 382.557220,507.843597 384.157867,497.505951 
	C384.621979,494.508545 384.924377,491.623291 381.934418,490.031464 
	C378.994537,488.466309 376.271393,489.325928 373.805847,491.718536 
	C366.717804,498.596710 359.379425,505.039703 349.066467,506.803772 
	C345.606384,507.395660 342.333954,507.069916 339.250519,505.976471 
	C335.393616,504.608704 332.429504,505.534546 329.685669,508.157867 
	C327.639648,510.114014 325.601959,512.080627 323.614777,514.096069 
	C318.161438,519.626953 312.908295,525.178162 305.067688,527.741882 
	C299.517578,529.556641 295.407837,534.147766 290.811737,537.721863 
	C289.941620,538.398560 289.085876,539.406128 287.401001,538.460754 
	C287.676788,535.906738 289.555542,534.182129 291.197815,532.491028 
	C299.662781,523.774475 308.093018,515.015686 316.823425,506.569397 
	C320.560425,502.954041 323.366913,498.588287 327.117645,495.033417 
	C327.353302,494.810089 327.643890,494.500275 327.663300,494.214020 
	C328.367279,483.826416 337.530273,480.820953 344.048767,475.591949 
	C348.477264,472.039581 348.633362,472.216675 344.043091,468.715149 
	C338.281708,464.320374 337.667236,458.562775 342.879547,453.547729 
	C351.611481,445.146240 356.424255,434.265594 362.085205,423.934326 
	C366.476044,415.920990 373.288361,409.922668 378.822845,402.868866 
	C384.375092,395.792358 390.343750,389.032257 395.696686,381.812286 
	C402.618896,372.475708 412.431152,368.134674 423.137695,365.838501 
	C442.847321,361.611450 461.916077,355.098785 481.432434,350.215820 
	C483.708618,349.646301 485.779114,348.607910 487.550049,346.974884 
	C508.613770,327.551453 529.742859,308.198608 550.752441,288.716797 
	C561.247498,278.984924 571.249268,268.720734 582.289490,259.577606 
	C585.381531,257.016846 588.224548,254.318680 589.718567,250.374542 
	C590.523743,248.248749 592.590881,247.760269 594.783875,248.354324 
	C596.303589,248.765961 597.702759,249.476578 597.911621,251.187103 
	C598.161865,253.236938 597.030457,255.096268 595.297852,255.608444 
	C589.558777,257.304993 586.444702,262.036407 582.932434,266.102875 
	C560.794373,291.734009 536.358521,315.131287 512.471741,339.063934 
	C511.647949,339.889282 510.792847,340.683258 509.967438,341.506989 
	C504.687988,346.775818 504.851715,348.051941 510.942169,351.992889 
	C514.578613,354.345947 517.624207,357.411407 520.835266,360.314056 
	C526.602173,365.527161 532.780457,370.358673 539.176331,374.787109 
	C552.212463,383.813232 564.188538,394.171997 576.657654,403.907806 
	C581.688599,407.835938 586.878357,411.412384 593.058960,413.227600 
	C598.673279,414.876526 600.787476,413.503571 601.556152,407.723358 
	C601.985901,404.492859 603.273621,401.591461 604.988159,398.975433 
	C607.117554,395.726410 610.061035,393.807892 614.328064,394.996368 
	C631.992981,399.916656 650.226257,401.655792 668.351196,403.024902 
	C679.997070,403.904602 691.974731,403.721008 703.672791,401.731079 
	C711.883362,400.334412 720.043274,400.354645 728.655396,400.954529 
	C727.725952,403.901337 725.634949,404.084839 724.049988,403.827545 
	C714.020508,402.199310 704.713684,406.419128 694.991272,407.332520 
	C684.824463,408.287598 674.733948,407.309723 664.614746,407.681030 
	C661.631592,407.790527 658.690430,408.124207 655.727356,408.265839 
	C651.389099,408.473145 647.421997,407.473267 643.301819,405.611053 
	C638.101196,403.260498 632.112671,403.700531 625.216797,403.194244 
	C631.403748,410.041077 638.082642,414.024048 645.005432,417.548187 
	C652.202087,421.211761 658.672119,425.647980 663.360413,432.342133 
	C664.691650,434.242981 667.025757,434.863983 668.725525,436.264404 
	C674.458069,440.987274 677.314148,447.755463 681.292847,453.425110 
	C683.895874,457.134491 687.721863,461.808411 687.582520,467.498169 
	C687.542847,469.119446 688.465515,470.587341 689.704956,471.877533 
	C691.502991,473.749268 692.266479,476.029846 691.696411,478.762421 
	C691.401611,480.175568 691.166687,482.134766 691.889648,483.136505 
	C695.470093,488.097717 693.471802,493.426483 693.043518,498.510193 
	C692.414246,505.979797 693.619141,508.390991 700.749512,510.707062 
	C704.825134,512.030884 705.765808,516.371338 702.798828,520.399231 
	C701.229675,522.529602 699.529724,524.563354 697.950623,526.686707 
	C695.271973,530.288269 695.908386,531.757202 699.914978,533.946594 
	C706.438354,537.511292 712.553345,536.932312 718.945190,532.875427 
M594.170593,421.414520 
	C592.011108,418.973541 590.936584,415.681580 587.482483,414.246735 
	C582.854736,412.324280 578.859985,409.254089 574.932312,406.148712 
	C560.577454,394.799103 546.444153,383.165039 531.578064,372.470612 
	C529.887756,371.254578 528.068359,370.239838 526.109558,370.272736 
	C518.890686,370.394012 512.156067,367.248596 504.569366,368.432617 
	C497.593048,369.521332 490.190826,367.559723 483.437469,371.297516 
	C479.578308,373.433380 475.008789,374.270081 471.919067,377.811707 
	C469.603302,380.466217 469.470428,382.619415 473.263092,383.706268 
	C475.786835,384.429474 478.122742,385.553894 480.868561,385.869293 
	C487.358215,386.614777 489.893677,390.136017 490.036316,396.530823 
	C490.070068,398.042847 488.806580,400.234070 491.754730,401.723633 
	C494.487793,395.662201 496.227295,389.148285 500.445435,383.838013 
	C501.569427,385.507599 500.752350,387.423370 501.179169,389.132843 
	C502.613617,394.878113 498.898712,400.201202 499.635834,405.687958 
	C500.204803,409.923004 498.715576,412.972198 496.920563,416.389801 
	C492.351532,425.089050 485.033020,429.875763 475.834381,432.543762 
	C472.394135,433.541565 468.557556,434.172455 465.978699,437.067749 
	C458.537659,445.421844 448.959564,449.948578 438.378021,452.721283 
	C436.443268,453.228241 434.670471,453.919708 435.468170,456.366699 
	C436.158234,458.483521 438.074860,459.359863 439.767548,457.997498 
	C441.565796,456.550201 442.192474,457.518280 443.366180,458.556122 
	C444.466461,459.528961 445.846985,460.760468 447.156708,460.825867 
	C454.652374,461.199951 462.497406,461.952209 469.564270,460.767334 
	C474.481903,459.942871 479.996613,458.618835 485.120026,457.048248 
	C489.720764,455.637817 494.252014,453.785645 499.465332,453.898682 
	C502.992584,453.975159 508.004730,453.863068 509.629852,448.183655 
	C507.404785,447.979248 505.116577,448.987793 503.662354,446.825653 
	C502.095825,444.496460 502.368896,436.071014 504.311676,433.957977 
	C506.683624,431.378143 508.433594,428.562378 509.828156,425.260345 
	C511.919556,420.308350 514.831726,415.689606 517.555237,411.022766 
	C519.331848,407.978546 522.493103,408.828674 525.161194,409.008423 
	C527.820007,409.187592 527.800415,411.722443 528.039978,413.610718 
	C528.734375,419.083405 525.718323,422.925018 521.342041,425.109894 
	C516.691772,427.431549 514.547913,430.856476 513.645630,435.926971 
	C514.565857,435.715149 515.186096,435.441864 515.802429,435.450378 
	C523.324829,435.554413 530.293945,435.344116 537.069214,430.263153 
	C542.162842,426.443390 545.708008,419.723480 553.244385,419.452393 
	C557.145325,425.803131 557.016907,434.668335 552.547363,438.011932 
	C548.068115,441.362732 545.173706,446.021423 541.528381,450.053436 
	C540.290710,451.422363 540.007263,453.017853 541.238953,454.593750 
	C542.758423,456.537750 544.302368,458.463501 545.872070,460.367157 
	C548.176514,463.162048 550.331665,464.284912 552.678284,460.233124 
	C553.856506,458.198792 555.658325,456.525635 557.243835,454.609589 
	C558.797119,456.468414 557.791016,458.077057 557.667786,459.653778 
	C557.346008,463.770630 560.760071,470.993134 563.791321,471.280212 
	C566.194946,471.507904 567.244873,472.750275 568.585205,474.188110 
	C571.444031,477.254913 576.347046,477.598083 578.996521,474.293121 
	C584.310120,467.665161 591.239807,462.105133 593.569153,453.380005 
	C594.153198,451.192444 595.411987,449.706146 597.923035,449.206787 
	C598.465393,454.319611 601.083435,458.068298 603.334045,462.041412 
	C608.667114,458.831177 609.989807,443.580261 605.672852,438.539276 
	C604.432495,440.530426 603.045837,442.339691 600.509888,442.679047 
	C596.972839,440.477417 595.523254,437.607727 597.153748,433.501770 
	C599.699219,433.453217 601.518494,435.767273 604.059387,434.920105 
	C605.007812,433.217682 604.884094,431.393158 604.112061,429.707825 
	C602.250793,425.644806 598.415527,423.827850 594.170593,421.414520 
M629.726624,434.445831 
	C629.785950,432.613068 630.172729,430.505341 627.400696,430.406708 
	C625.224792,430.329285 624.720886,431.998596 624.434143,433.735352 
	C623.730530,437.996552 623.079895,442.267181 622.321350,446.518555 
	C619.661316,461.426239 618.918152,476.548126 617.563721,491.589111 
	C617.290588,494.622284 614.772034,496.019196 614.736572,499.179840 
	C614.647461,507.116577 619.694824,512.776794 623.057861,518.882751 
	C627.871521,527.622559 636.279602,530.441284 646.488953,529.054077 
	C655.185547,527.872253 657.848877,526.714966 660.449280,518.278442 
	C662.159485,512.730103 663.658630,507.047668 664.450073,501.314545 
	C664.839905,498.490936 668.254578,497.367676 667.419678,494.249603 
	C666.460022,490.666138 666.699524,486.963531 666.738525,483.309875 
	C666.768677,480.486115 666.225830,478.582336 662.153381,480.033539 
	C664.970520,471.594543 661.544434,464.314636 661.587524,456.756561 
	C659.195312,459.331238 661.930115,462.679413 659.448120,465.590729 
	C656.663818,461.007751 659.375061,455.727448 656.727356,451.511322 
	C654.328613,453.116058 656.312378,456.326202 654.026489,458.308899 
	C653.094238,453.068726 653.444092,448.051392 652.002991,443.426697 
	C649.768494,443.139465 650.676331,446.362305 648.225952,445.800751 
	C647.715088,442.647186 646.724976,439.407288 646.774597,436.183380 
	C646.853577,431.059540 642.466248,431.095947 639.661987,429.413849 
	C638.592712,428.772461 636.434082,429.610260 636.654419,431.088135 
	C637.400757,436.093140 633.485657,437.049194 630.671753,439.071991 
	C629.213074,437.900055 629.798584,436.481537 629.726624,434.445831 
M372.994476,442.480774 
	C376.338074,437.210114 380.337006,432.426880 377.571564,425.155212 
	C376.131775,421.369293 380.457031,418.455536 384.140686,420.536011 
	C386.283112,421.745972 387.829987,421.339813 389.712921,420.601074 
	C393.576111,419.085510 396.518219,416.554749 398.664612,412.992920 
	C400.972443,409.163208 403.814667,405.816406 407.355072,402.983337 
	C413.070892,398.409485 414.225616,394.468048 411.854889,389.358856 
	C411.787872,389.214508 412.179077,388.857544 412.544403,388.326965 
	C416.016449,390.502838 420.049835,390.998779 423.788208,389.835632 
	C432.206940,387.216187 439.429443,381.023468 448.978760,381.594116 
	C450.187378,381.666321 451.652924,380.324188 452.724365,379.338348 
	C459.581787,373.029144 466.383362,366.658600 473.147705,360.249542 
	C474.286774,359.170288 475.851624,358.152161 475.210968,355.830322 
	C471.752167,355.383789 468.416656,356.139130 465.141571,357.207123 
	C452.332275,361.384216 439.302124,364.702972 426.145508,367.591217 
	C414.699219,370.104004 404.207611,374.313690 397.212372,384.593811 
	C394.786407,388.158936 391.803253,391.346161 389.058685,394.692993 
	C381.357544,404.084137 373.050232,413.049774 366.103760,422.968781 
	C358.591614,433.695587 354.041656,446.338623 345.485718,456.503876 
	C344.632111,457.518066 344.013489,458.841095 344.857544,460.188721 
	C345.647583,461.450073 346.990814,461.619781 348.370422,461.684082 
	C350.176208,461.768188 351.482147,460.790710 352.897858,459.877533 
	C360.219543,455.154694 365.818970,448.449493 372.994476,442.480774 
M404.848450,474.334839 
	C408.849670,469.739410 409.386139,464.353577 407.847290,458.567047 
	C410.134277,458.180511 411.859741,457.888885 413.599335,457.594849 
	C415.007782,460.725922 412.607758,463.150818 412.853790,466.057098 
	C413.257599,470.826721 416.463928,471.831787 419.843750,472.384735 
	C422.846252,472.875946 425.271271,471.464569 426.074188,468.027740 
	C426.360626,466.801636 427.630066,465.819763 427.983459,464.591919 
	C428.909576,461.374115 431.064056,457.459534 427.452209,455.110687 
	C423.354767,452.446075 418.467743,451.010925 414.332550,448.243713 
	C413.422241,447.634552 412.135986,447.216919 411.574738,447.972107 
	C408.280060,452.405426 404.095703,451.591095 399.637787,450.528839 
	C398.276672,450.204559 396.697296,450.939209 395.815430,453.044067 
	C402.549835,456.955383 402.315826,463.695435 402.361298,470.364197 
	C402.372070,471.937592 401.896057,473.852936 404.848450,474.334839 
M391.205200,478.593719 
	C397.036285,476.130951 399.442993,465.311462 395.190918,460.676636 
	C394.356232,459.766846 393.229156,458.982788 392.115784,459.497345 
	C387.806122,461.489136 382.869415,462.132019 379.179596,465.460938 
	C375.765991,468.540680 375.816406,474.338989 379.643036,476.735809 
	C382.862152,478.752075 386.460449,480.246582 391.205200,478.593719 
M345.328644,483.871552 
	C342.648499,485.819244 339.847229,487.623199 337.320129,489.752563 
	C334.424286,492.192627 331.282745,494.626373 331.279297,499.360779 
	C334.861450,497.470886 337.308472,494.334320 340.907990,493.550110 
	C348.178802,491.966034 352.456726,487.001587 356.055756,481.089447 
	C356.930878,479.651825 357.106384,478.275177 355.602692,477.141479 
	C354.292511,476.153687 353.084442,476.621155 352.023834,477.603882 
	C349.955566,479.520264 347.922180,481.474335 345.328644,483.871552 
M618.501892,432.189209 
	C619.062988,424.653229 619.062988,424.653229 610.018555,422.790405 
	C611.479187,430.073181 611.721680,437.261078 614.315491,445.075531 
	C617.143921,440.680054 617.450317,436.749847 618.501892,432.189209 
M432.519775,404.035431 
	C429.599121,406.501801 426.614380,408.897064 423.776031,411.454742 
	C420.980927,413.973419 418.334198,416.656769 415.622375,419.267853 
	C415.998566,419.625000 416.374786,419.982117 416.750977,420.339264 
	C424.929810,412.751434 433.108643,405.163605 441.287476,397.575745 
	C440.992065,397.246063 440.696655,396.916382 440.401276,396.586700 
	C437.943604,398.906433 435.485931,401.226196 432.519775,404.035431 
z"/>
</svg>