<svg version="1.1" id="Layer_1" xmlns="http://www.w3.org/2000/svg" xmlns:xlink="http://www.w3.org/1999/xlink" x="0px" y="0px"
	 width="100%" viewBox="0 0 2000 2000" enable-background="new 0 0 2000 2000" xml:space="preserve">
<path fill="#FFFFFF" opacity="1.000000" stroke="none" 
	d="
M973.000000,2001.000000 
	C648.666687,2001.000000 324.833344,2001.000000 1.000000,2001.000000 
	C1.000000,1334.333374 1.000000,667.666687 1.000000,1.000000 
	C667.666687,1.000000 1334.333374,1.000000 2001.000000,1.000000 
	C2001.000000,667.666687 2001.000000,1334.333374 2001.000000,2001.000000 
	C1658.500000,2001.000000 1316.000000,2001.000000 973.000000,2001.000000 
M1057.036743,1110.887817 
	C1065.698608,1122.243530 1074.360474,1133.599121 1083.257812,1145.584106 
	C1093.500977,1155.733154 1103.744019,1165.882324 1114.282837,1176.629028 
	C1125.843628,1185.455444 1137.404419,1194.281738 1149.315674,1203.675049 
	C1159.889771,1209.777100 1170.463989,1215.879150 1181.482422,1222.499023 
	C1192.657227,1227.324219 1203.832031,1232.149414 1215.551147,1237.439453 
	C1226.036133,1240.579590 1236.520996,1243.719727 1247.702759,1247.170410 
	C1257.798340,1249.240234 1267.893799,1251.309937 1278.664917,1253.751099 
	C1291.993164,1255.640503 1305.312378,1257.670166 1318.897461,1256.798218 
	C1316.910400,1205.275879 1305.343140,1156.787109 1280.000854,1111.257690 
	C1269.466919,1095.567017 1258.933105,1079.876221 1248.209351,1063.579712 
	C1237.784180,1052.395508 1227.358887,1041.211304 1216.669800,1029.416992 
	C1205.530640,1020.399902 1194.391357,1011.382874 1182.817139,1001.899048 
	C1171.568359,994.863708 1160.319580,987.828430 1148.680908,980.247986 
	C1137.819702,975.145569 1126.958374,970.043152 1115.625610,964.412476 
	C1105.084106,960.654419 1094.542603,956.896423 1083.335449,952.794556 
	C1074.890503,950.564819 1066.445679,948.335022 1057.289917,945.784180 
	C1049.194946,944.322815 1041.100098,942.861450 1032.204224,941.120239 
	C1022.805481,939.995422 1013.406738,938.870605 1004.842224,937.845642 
	C1015.452332,936.247803 1026.728516,934.549622 1038.822388,932.963257 
	C1049.916138,930.508423 1061.010010,928.053589 1072.909302,925.440552 
	C1084.045410,921.688660 1095.181641,917.936768 1107.048096,914.125366 
	C1115.415283,910.532410 1123.782471,906.939514 1132.870972,903.177307 
	C1140.944458,898.803528 1149.017944,894.429749 1157.776978,889.935669 
	C1166.564819,884.134033 1175.352661,878.332397 1184.708008,872.081116 
	C1185.276001,871.502747 1185.792603,870.860352 1186.419800,870.355469 
	C1195.973877,862.664551 1205.542603,854.991638 1215.728149,847.018188 
	C1225.774658,836.334106 1235.821167,825.650085 1246.439941,814.581299 
	C1247.451294,813.114136 1248.452637,811.639832 1249.475708,810.180847 
	C1257.665649,798.501099 1265.859863,786.824280 1274.624634,774.762878 
	C1302.739258,727.409973 1317.521240,676.270386 1318.949707,620.645203 
	C1309.156006,621.299988 1300.069092,621.737793 1291.018677,622.572083 
	C1284.986572,623.128174 1279.006714,624.249451 1272.161377,625.020874 
	C1262.776367,627.085815 1253.391235,629.150757 1243.241577,631.202698 
	C1233.469727,634.388062 1223.697754,637.573425 1213.158447,640.819336 
	C1203.114380,645.239319 1193.070190,649.659363 1182.318237,654.138794 
	C1173.202881,659.402222 1164.087646,664.665649 1154.288574,670.068298 
	C1145.970581,675.924927 1137.652588,681.781494 1128.736572,687.887634 
	C1120.462402,695.176636 1112.188232,702.465576 1103.290771,710.035400 
	C1092.352173,722.281250 1081.413574,734.527100 1069.987915,747.182861 
	C1056.668335,764.219727 1045.120605,782.363098 1035.280029,802.340881 
	C1015.082886,843.876038 1003.048401,887.610779 999.305603,933.242126 
	C998.780212,927.997620 998.349487,922.741577 997.713867,917.510437 
	C994.074036,887.555237 987.643311,858.186035 975.903076,830.370056 
	C968.320984,812.406006 958.762329,795.276245 949.978455,777.098511 
	C940.088623,763.345032 930.198792,749.591492 920.055847,735.201660 
	C909.090576,723.936707 898.125244,712.671753 886.849548,700.867249 
	C880.246338,695.429749 873.760254,689.840698 866.993408,684.614990 
	C863.277832,681.745483 859.089111,679.488647 854.917358,676.298889 
	C843.626648,669.489075 832.335999,662.679321 820.629944,655.325012 
	C808.755432,650.207397 796.880920,645.089783 784.494080,639.474487 
	C772.662415,636.021606 760.830750,632.568726 748.303833,628.777588 
	C737.932861,626.984985 727.561829,625.192383 716.428345,623.117126 
	C705.464111,622.379639 694.499939,621.642151 683.025208,620.870300 
	C683.025208,623.278076 682.979065,625.063110 683.032104,626.845154 
	C683.757202,651.184387 687.396973,675.092468 693.908936,698.544983 
	C699.153687,717.433411 705.525696,735.909485 714.976196,753.931274 
	C723.912964,772.019531 734.186157,789.278442 746.984070,805.765137 
	C759.044556,818.990540 771.104980,832.215942 783.547668,846.022766 
	C795.643860,855.798645 807.740051,865.574524 820.217651,875.880005 
	C831.154663,882.557861 842.091614,889.235657 853.483704,896.424561 
	C864.292725,901.386841 875.101807,906.349060 886.404358,911.783936 
	C896.937134,915.501038 907.469971,919.218079 918.638184,923.335205 
	C928.682495,925.778320 938.726746,928.221497 949.451050,930.943787 
	C964.298523,933.327942 979.145935,935.712158 993.136047,937.958679 
	C990.581299,938.214722 987.008789,938.465759 983.468323,938.950317 
	C976.631958,939.885864 969.813599,940.953369 962.138550,941.903870 
	C953.075562,943.873962 944.012634,945.844055 934.137451,947.837097 
	C924.093567,950.899780 914.049683,953.962463 903.250427,957.032410 
	C893.120605,961.217407 882.990845,965.402466 872.143494,969.791504 
	C863.768127,974.209900 855.392700,978.628296 846.329895,983.175232 
	C838.556702,988.133484 830.783447,993.091736 822.360596,998.239136 
	C813.227539,1005.453369 804.094482,1012.667603 794.337585,1020.146057 
	C783.518677,1031.019775 772.699829,1041.893555 761.289490,1053.103882 
	C750.426575,1068.018921 739.563660,1082.934082 728.184326,1098.266846 
	C699.028748,1147.037598 683.563232,1199.656006 682.764465,1258.284180 
	C699.568970,1256.048462 715.284668,1253.957520 731.799561,1251.881348 
	C742.531616,1249.251465 753.263733,1246.621460 764.774902,1243.998291 
	C775.630859,1240.073242 786.486816,1236.148315 798.042480,1232.087158 
	C806.370361,1228.084106 814.698242,1224.080933 823.730408,1219.966431 
	C831.837097,1215.032104 839.943787,1210.097656 848.730225,1204.992310 
	C857.189880,1198.739868 865.649475,1192.487549 874.750977,1185.994629 
	C881.470032,1180.130981 888.345947,1174.434814 894.850525,1168.342163 
	C898.897339,1164.551758 902.382202,1160.161255 906.717651,1155.757202 
	C916.772583,1143.490845 926.827515,1131.224365 937.421692,1118.527466 
	C939.150635,1115.752686 940.967590,1113.028320 942.593567,1110.194336 
	C950.231628,1096.882080 957.817261,1083.539795 965.877686,1069.710083 
	C966.393250,1068.490479 966.863892,1067.249390 967.431091,1066.054321 
	C982.926331,1033.405151 992.435974,999.029968 997.104553,963.255859 
	C998.018799,956.250366 998.958618,949.248108 999.921082,943.112793 
	C1001.828003,965.337097 1004.612244,987.508423 1011.279663,1008.800232 
	C1017.259033,1027.894897 1024.929077,1046.460083 1031.944946,1065.968384 
	C1040.257935,1080.720703 1048.570923,1095.472900 1057.036743,1110.887817 
z"/>
<path fill="#4E83B9" opacity="1.000000" stroke="none" 
	d="
M962.987793,941.966125 
	C969.813599,940.953369 976.631958,939.885864 983.468323,938.950317 
	C987.008789,938.465759 990.581299,938.214722 993.136047,937.958679 
	C979.145935,935.712158 964.298523,933.327942 949.176208,930.286377 
	C948.934265,881.948975 948.947937,834.268860 949.046326,786.589050 
	C949.052368,783.649475 949.726318,780.711365 950.089417,777.772583 
	C958.762329,795.276245 968.320984,812.406006 975.903076,830.370056 
	C987.643311,858.186035 994.074036,887.555237 997.713867,917.510437 
	C998.349487,922.741577 998.780212,927.997620 999.627197,933.960205 
	C999.928040,937.200256 999.907349,939.722351 999.886658,942.244385 
	C998.958618,949.248108 998.018799,956.250366 997.104553,963.255859 
	C992.435974,999.029968 982.926331,1033.405151 967.431091,1066.054321 
	C966.863892,1067.249390 966.393250,1068.490479 965.290649,1069.738525 
	C964.135742,1067.420532 963.078857,1065.075317 963.072693,1062.727539 
	C962.967346,1022.473938 962.991882,982.220032 962.987793,941.966125 
z"/>
<path fill="#7267E1" opacity="1.000000" stroke="none" 
	d="
M819.836304,875.350403 
	C807.740051,865.574524 795.643860,855.798645 783.781738,845.480896 
	C784.343872,842.865479 784.957031,840.792114 784.958679,838.718262 
	C785.011108,772.469604 785.004211,706.220886 785.006348,639.972168 
	C796.880920,645.089783 808.755432,650.207397 820.823364,656.075378 
	C821.011230,727.242859 821.017151,797.660034 820.951050,868.077087 
	C820.948730,870.501892 820.224182,872.925964 819.836304,875.350403 
z"/>
<path fill="#299F91" opacity="1.000000" stroke="none" 
	d="
M1148.965088,1203.108154 
	C1137.404419,1194.281738 1125.843628,1185.455444 1114.191162,1175.912842 
	C1114.399536,1172.745361 1114.960205,1170.294189 1114.962036,1167.842651 
	C1115.009766,1102.253174 1114.990112,1036.663696 1115.046143,971.074280 
	C1115.047852,969.029480 1115.731445,966.985291 1116.097168,964.940796 
	C1126.958374,970.043152 1137.819702,975.145569 1148.854614,981.003174 
	C1149.007202,1055.541626 1148.986206,1129.324829 1148.965088,1203.108154 
z"/>
<path fill="#22A589" opacity="1.000000" stroke="none" 
	d="
M1149.140381,1203.391602 
	C1148.986206,1129.324829 1149.007202,1055.541626 1149.049561,981.275696 
	C1160.319580,987.828430 1171.568359,994.863708 1182.862549,1002.568665 
	C1182.605347,1005.514648 1182.039673,1007.790833 1182.038086,1010.067383 
	C1181.991211,1078.640869 1182.008423,1147.214233 1181.959717,1215.787720 
	C1181.958252,1217.852417 1181.358765,1219.916748 1181.038086,1221.981201 
	C1170.463989,1215.879150 1159.889771,1209.777100 1149.140381,1203.391602 
z"/>
<path fill="#6372D1" opacity="1.000000" stroke="none" 
	d="
M885.910889,911.311279 
	C875.101807,906.349060 864.292725,901.386841 853.247070,895.706543 
	C853.006958,846.381836 853.002930,797.775085 853.000183,749.168335 
	C852.998901,726.862488 852.952332,704.556335 853.091431,682.251343 
	C853.102478,680.481934 854.409119,678.720642 855.113647,676.955566 
	C859.089111,679.488647 863.277832,681.745483 866.993408,684.614990 
	C873.760254,689.840698 880.246338,695.429749 886.957764,701.607056 
	C886.710632,705.959900 886.050171,709.572571 886.045166,713.186157 
	C885.953552,779.227844 885.940613,845.269531 885.910889,911.311279 
z"/>
<path fill="#1BAB80" opacity="1.000000" stroke="none" 
	d="
M1181.260254,1222.240112 
	C1181.358765,1219.916748 1181.958252,1217.852417 1181.959717,1215.787720 
	C1182.008423,1147.214233 1181.991211,1078.640869 1182.038086,1010.067383 
	C1182.039673,1007.790833 1182.605347,1005.514648 1183.080078,1002.802063 
	C1194.391357,1011.382874 1205.530640,1020.399902 1216.463135,1029.921387 
	C1215.837646,1032.295288 1215.054321,1034.164429 1215.052612,1036.034302 
	C1214.991943,1103.014404 1215.004517,1169.994507 1215.006836,1236.974609 
	C1203.832031,1232.149414 1192.657227,1227.324219 1181.260254,1222.240112 
z"/>
<path fill="#6A6DD9" opacity="1.000000" stroke="none" 
	d="
M855.015503,676.627197 
	C854.409119,678.720642 853.102478,680.481934 853.091431,682.251343 
	C852.952332,704.556335 852.998901,726.862488 853.000183,749.168335 
	C853.002930,797.775085 853.006958,846.381836 853.019531,895.451050 
	C842.091614,889.235657 831.154663,882.557861 820.026978,875.615234 
	C820.224182,872.925964 820.948730,870.501892 820.951050,868.077087 
	C821.017151,797.660034 821.011230,727.242859 821.031067,656.347656 
	C832.335999,662.679321 843.626648,669.489075 855.015503,676.627197 
z"/>
<path fill="#7A61EB" opacity="1.000000" stroke="none" 
	d="
M784.750244,639.723328 
	C785.004211,706.220886 785.011108,772.469604 784.958679,838.718262 
	C784.957031,840.792114 784.343872,842.865479 783.590637,845.190186 
	C771.104980,832.215942 759.044556,818.990540 747.236389,805.250854 
	C747.992493,802.579773 748.933105,800.423523 748.936157,798.265930 
	C749.016357,741.882629 748.999390,685.499268 748.999084,629.115906 
	C760.830750,632.568726 772.662415,636.021606 784.750244,639.723328 
z"/>
<path fill="#7763E7" opacity="1.000000" stroke="none" 
	d="
M797.342773,1232.223389 
	C786.486816,1236.148315 775.630859,1240.073242 764.218567,1243.612183 
	C763.441467,1241.100342 763.029175,1238.974731 763.027954,1236.848877 
	C762.993103,1177.915161 763.013367,1118.981445 762.952759,1060.047729 
	C762.950256,1057.620605 762.253967,1055.194092 761.880920,1052.767334 
	C772.699829,1041.893555 783.518677,1031.019775 794.708374,1020.437988 
	C795.386108,1023.178833 795.959351,1025.627441 795.961182,1028.076538 
	C796.009888,1094.120605 795.988220,1160.164551 796.056396,1226.208618 
	C796.058472,1228.213867 796.895142,1230.218506 797.342773,1232.223389 
z"/>
<path fill="#1BAB80" opacity="1.000000" stroke="none" 
	d="
M1183.026123,654.079346 
	C1193.070190,649.659363 1203.114380,645.239319 1213.564087,641.274536 
	C1213.979736,705.145569 1213.964355,768.561462 1214.047729,831.977173 
	C1214.054443,837.090088 1214.738647,842.202148 1215.107910,847.314575 
	C1205.542603,854.991638 1195.973877,862.664551 1186.419800,870.355469 
	C1185.792603,870.860352 1185.276001,871.502747 1184.382080,871.843567 
	C1183.703979,869.156250 1183.046143,866.706665 1183.044434,864.256714 
	C1182.997925,794.197571 1183.017456,724.138489 1183.026123,654.079346 
z"/>
<path fill="#5F75CD" opacity="1.000000" stroke="none" 
	d="
M906.119263,1156.040161 
	C902.382202,1160.161255 898.897339,1164.551758 894.850525,1168.342163 
	C888.345947,1174.434814 881.470032,1180.130981 874.257446,1185.712769 
	C873.509216,1183.309692 873.033936,1181.188477 873.032288,1179.067139 
	C872.991028,1126.571167 873.011230,1074.075195 872.993652,1021.579163 
	C872.987854,1004.248596 872.907410,986.918030 872.861084,969.587463 
	C882.990845,965.402466 893.120605,961.217407 903.626282,957.495728 
	C904.001465,993.920288 904.000610,1029.881592 904.000122,1065.842896 
	C903.999817,1094.145752 903.962097,1122.448853 904.090820,1150.751221 
	C904.098816,1152.517212 905.412842,1154.277344 906.119263,1156.040161 
z"/>
<path fill="#5C78C9" opacity="1.000000" stroke="none" 
	d="
M886.157593,911.547607 
	C885.940613,845.269531 885.953552,779.227844 886.045166,713.186157 
	C886.050171,709.572571 886.710632,705.959900 887.112915,701.876831 
	C898.125244,712.671753 909.090576,723.936707 919.838745,735.746826 
	C919.081055,738.816284 918.072327,741.339783 918.068604,743.864807 
	C917.981079,803.554871 918.001831,863.244995 918.002747,922.935181 
	C907.469971,919.218079 896.937134,915.501038 886.157593,911.547607 
z"/>
<path fill="#14B079" opacity="1.000000" stroke="none" 
	d="
M1215.279053,1237.207031 
	C1215.004517,1169.994507 1214.991943,1103.014404 1215.052612,1036.034302 
	C1215.054321,1034.164429 1215.837646,1032.295288 1216.595093,1030.226440 
	C1227.358887,1041.211304 1237.784180,1052.395508 1248.159668,1064.353271 
	C1247.739990,1067.570679 1247.049438,1070.014160 1247.046997,1072.458252 
	C1246.988647,1130.592163 1247.004028,1188.725952 1247.005981,1246.859863 
	C1236.520996,1243.719727 1226.036133,1240.579590 1215.279053,1237.207031 
z"/>
<path fill="#33989B" opacity="1.000000" stroke="none" 
	d="
M1115.861328,964.676636 
	C1115.731445,966.985291 1115.047852,969.029480 1115.046143,971.074280 
	C1114.990112,1036.663696 1115.009766,1102.253174 1114.962036,1167.842651 
	C1114.960205,1170.294189 1114.399536,1172.745361 1114.043213,1175.614014 
	C1103.744019,1165.882324 1093.500977,1155.733154 1083.306152,1144.889282 
	C1083.569702,1142.068848 1083.971558,1139.943359 1083.972656,1137.817627 
	C1084.006714,1076.257935 1084.000732,1014.698181 1084.001099,953.138428 
	C1094.542603,956.896423 1105.084106,960.654419 1115.861328,964.676636 
z"/>
<path fill="#33989B" opacity="1.000000" stroke="none" 
	d="
M1070.474976,746.773010 
	C1081.413574,734.527100 1092.352173,722.281250 1103.628174,710.380615 
	C1103.976929,712.558594 1103.998535,714.391296 1103.998535,716.224060 
	C1104.000244,780.040771 1103.977295,843.857544 1104.097656,907.674011 
	C1104.101685,909.845703 1105.545166,912.014648 1106.317749,914.184875 
	C1095.181641,917.936768 1084.045410,921.688660 1072.481445,925.003906 
	C1072.035645,867.435791 1072.034180,810.304321 1071.935669,753.172913 
	C1071.932007,751.038757 1070.983398,748.906250 1070.474976,746.773010 
z"/>
<path fill="#438DAC" opacity="1.000000" stroke="none" 
	d="
M999.903870,942.678589 
	C999.907349,939.722351 999.928040,937.200256 999.911438,934.205688 
	C1003.048401,887.610779 1015.082886,843.876038 1035.862183,802.374573 
	C1036.962891,806.647766 1037.919189,810.885925 1037.931885,815.126892 
	C1038.048950,854.368164 1038.003052,893.609863 1038.004639,932.851440 
	C1026.728516,934.549622 1015.452332,936.247803 1004.842224,937.845642 
	C1013.406738,938.870605 1022.805481,939.995422 1032.604980,941.700928 
	C1033.003784,981.019714 1033.020996,1019.757874 1032.951050,1058.495850 
	C1032.947021,1060.750854 1032.235474,1063.004639 1031.853271,1065.258911 
	C1024.929077,1046.460083 1017.259033,1027.894897 1011.279663,1008.800232 
	C1004.612244,987.508423 1001.828003,965.337097 999.903870,942.678589 
z"/>
<path fill="#22A589" opacity="1.000000" stroke="none" 
	d="
M1182.672119,654.109070 
	C1183.017456,724.138489 1182.997925,794.197571 1183.044434,864.256714 
	C1183.046143,866.706665 1183.703979,869.156250 1184.098267,872.068359 
	C1175.352661,878.332397 1166.564819,884.134033 1157.122314,889.707397 
	C1156.311768,887.509155 1156.020264,885.539368 1156.019531,883.569397 
	C1155.996094,815.137573 1156.012085,746.705688 1155.956665,678.273926 
	C1155.954346,675.492004 1155.314819,672.710693 1154.972290,669.929077 
	C1164.087646,664.665649 1173.202881,659.402222 1182.672119,654.109070 
z"/>
<path fill="#14B079" opacity="1.000000" stroke="none" 
	d="
M1215.417969,847.166382 
	C1214.738647,842.202148 1214.054443,837.090088 1214.047729,831.977173 
	C1213.964355,768.561462 1213.979736,705.145569 1213.947754,641.244263 
	C1223.697754,637.573425 1233.469727,634.388062 1243.623291,631.663574 
	C1244.003296,691.251404 1243.984985,750.378418 1244.078369,809.505249 
	C1244.081299,811.326477 1245.245117,813.145813 1245.867676,814.966064 
	C1235.821167,825.650085 1225.774658,836.334106 1215.417969,847.166382 
z"/>
<path fill="#7267E1" opacity="1.000000" stroke="none" 
	d="
M797.692627,1232.155273 
	C796.895142,1230.218506 796.058472,1228.213867 796.056396,1226.208618 
	C795.988220,1160.164551 796.009888,1094.120605 795.961182,1028.076538 
	C795.959351,1025.627441 795.386108,1023.178833 795.020325,1020.305908 
	C804.094482,1012.667603 813.227539,1005.453369 822.682129,998.609558 
	C823.011230,1072.679199 823.018677,1146.378540 823.026123,1220.077759 
	C814.698242,1224.080933 806.370361,1228.084106 797.692627,1232.155273 
z"/>
<path fill="#587BC5" opacity="1.000000" stroke="none" 
	d="
M906.418457,1155.898682 
	C905.412842,1154.277344 904.098816,1152.517212 904.090820,1150.751221 
	C903.962097,1122.448853 903.999817,1094.145752 904.000122,1065.842896 
	C904.000610,1029.881592 904.001465,993.920288 904.003967,957.492065 
	C914.049683,953.962463 924.093567,950.899780 934.558899,948.308472 
	C934.986877,1003.421509 934.972595,1058.063232 935.079346,1112.704834 
	C935.083374,1114.790405 936.254883,1116.873657 936.882446,1118.958008 
	C926.827515,1131.224365 916.772583,1143.490845 906.418457,1155.898682 
z"/>
<path fill="#7E5DEF" opacity="1.000000" stroke="none" 
	d="
M761.585205,1052.935547 
	C762.253967,1055.194092 762.950256,1057.620605 762.952759,1060.047729 
	C763.013367,1118.981445 762.993103,1177.915161 763.027954,1236.848877 
	C763.029175,1238.974731 763.441467,1241.100342 763.828979,1243.608887 
	C753.263733,1246.621460 742.531616,1249.251465 731.388062,1251.460449 
	C730.651062,1248.256470 730.045288,1245.473511 730.041748,1242.689941 
	C729.983154,1196.418701 730.016296,1150.147339 729.945007,1103.876221 
	C729.941895,1101.866455 729.133850,1099.858154 728.700745,1097.849121 
	C739.563660,1082.934082 750.426575,1068.018921 761.585205,1052.935547 
z"/>
<path fill="#6372D1" opacity="1.000000" stroke="none" 
	d="
M872.502319,969.689453 
	C872.907410,986.918030 872.987854,1004.248596 872.993652,1021.579163 
	C873.011230,1074.075195 872.991028,1126.571167 873.032288,1179.067139 
	C873.033936,1181.188477 873.509216,1183.309692 873.936462,1185.833008 
	C865.649475,1192.487549 857.189880,1198.739868 848.330322,1204.650146 
	C847.621033,1202.188965 847.042664,1200.070190 847.041443,1197.951050 
	C846.999451,1126.316284 847.012390,1054.681519 847.017334,983.046692 
	C855.392700,978.628296 863.768127,974.209900 872.502319,969.689453 
z"/>
<path fill="#2C9D94" opacity="1.000000" stroke="none" 
	d="
M1106.682861,914.155151 
	C1105.545166,912.014648 1104.101685,909.845703 1104.097656,907.674011 
	C1103.977295,843.857544 1104.000244,780.040771 1103.998535,716.224060 
	C1103.998535,714.391296 1103.976929,712.558594 1103.939697,710.240234 
	C1112.188232,702.465576 1120.462402,695.176636 1129.427734,688.029297 
	C1130.412476,690.257202 1130.961548,692.343201 1130.963013,694.429565 
	C1131.007935,761.643860 1130.987915,828.858154 1131.048340,896.072388 
	C1131.050537,898.497498 1131.766479,900.921875 1132.149780,903.346558 
	C1123.782471,906.939514 1115.415283,910.532410 1106.682861,914.155151 
z"/>
<path fill="#299F91" opacity="1.000000" stroke="none" 
	d="
M1132.510376,903.261963 
	C1131.766479,900.921875 1131.050537,898.497498 1131.048340,896.072388 
	C1130.987915,828.858154 1131.007935,761.643860 1130.963013,694.429565 
	C1130.961548,692.343201 1130.412476,690.257202 1129.726685,687.904541 
	C1137.652588,681.781494 1145.970581,675.924927 1154.630371,669.998657 
	C1155.314819,672.710693 1155.954346,675.492004 1155.956665,678.273926 
	C1156.012085,746.705688 1155.996094,815.137573 1156.019531,883.569397 
	C1156.020264,885.539368 1156.311768,887.509155 1156.779541,889.767456 
	C1149.017944,894.429749 1140.944458,898.803528 1132.510376,903.261963 
z"/>
<path fill="#3B92A4" opacity="1.000000" stroke="none" 
	d="
M1038.413574,932.907349 
	C1038.003052,893.609863 1038.048950,854.368164 1037.931885,815.126892 
	C1037.919189,810.885925 1036.962891,806.647766 1036.128174,802.156616 
	C1045.120605,782.363098 1056.668335,764.219727 1070.231445,746.977905 
	C1070.983398,748.906250 1071.932007,751.038757 1071.935669,753.172913 
	C1072.034180,810.304321 1072.035645,867.435791 1072.078613,925.083008 
	C1061.010010,928.053589 1049.916138,930.508423 1038.413574,932.907349 
z"/>
<path fill="#557DC2" opacity="1.000000" stroke="none" 
	d="
M918.320435,923.135193 
	C918.001831,863.244995 917.981079,803.554871 918.068604,743.864807 
	C918.072327,741.339783 919.081055,738.816284 919.965332,736.065002 
	C930.198792,749.591492 940.088623,763.345032 950.033936,777.435547 
	C949.726318,780.711365 949.052368,783.649475 949.046326,786.589050 
	C948.947937,834.268860 948.934265,881.948975 948.836182,930.146851 
	C938.726746,928.221497 928.682495,925.778320 918.320435,923.135193 
z"/>
<path fill="#6A6DD9" opacity="1.000000" stroke="none" 
	d="
M846.673584,983.110962 
	C847.012390,1054.681519 846.999451,1126.316284 847.041443,1197.951050 
	C847.042664,1200.070190 847.621033,1202.188965 847.990417,1204.735596 
	C839.943787,1210.097656 831.837097,1215.032104 823.378296,1220.022095 
	C823.018677,1146.378540 823.011230,1072.679199 823.006958,998.515015 
	C830.783447,993.091736 838.556702,988.133484 846.673584,983.110962 
z"/>
<path fill="#825BF3" opacity="1.000000" stroke="none" 
	d="
M748.651489,628.946777 
	C748.999390,685.499268 749.016357,741.882629 748.936157,798.265930 
	C748.933105,800.423523 747.992493,802.579773 747.116333,804.928101 
	C734.186157,789.278442 723.912964,772.019531 715.104614,753.180664 
	C715.488647,750.311401 715.964783,748.192993 715.967285,746.074036 
	C716.012146,707.611023 715.978455,669.147827 716.051086,630.684937 
	C716.055664,628.255798 716.793945,625.828125 717.190918,623.399780 
	C727.561829,625.192383 737.932861,626.984985 748.651489,628.946777 
z"/>
<path fill="#0DB671" opacity="1.000000" stroke="none" 
	d="
M1247.354370,1247.015137 
	C1247.004028,1188.725952 1246.988647,1130.592163 1247.046997,1072.458252 
	C1247.049438,1070.014160 1247.739990,1067.570679 1248.254639,1064.656250 
	C1258.933105,1079.876221 1269.466919,1095.567017 1279.645264,1111.703857 
	C1278.859741,1113.965454 1278.057373,1115.780029 1278.054443,1117.596069 
	C1277.981445,1162.857178 1277.992920,1208.118530 1277.989380,1253.379761 
	C1267.893799,1251.309937 1257.798340,1249.240234 1247.354370,1247.015137 
z"/>
<path fill="#8658F8" opacity="1.000000" stroke="none" 
	d="
M728.442505,1098.057983 
	C729.133850,1099.858154 729.941895,1101.866455 729.945007,1103.876221 
	C730.016296,1150.147339 729.983154,1196.418701 730.041748,1242.689941 
	C730.045288,1245.473511 730.651062,1248.256470 730.988464,1251.453125 
	C715.284668,1253.957520 699.568970,1256.048462 682.764465,1258.284180 
	C683.563232,1199.656006 699.028748,1147.037598 728.442505,1098.057983 
z"/>
<path fill="#0DB671" opacity="1.000000" stroke="none" 
	d="
M1246.153809,814.773682 
	C1245.245117,813.145813 1244.081299,811.326477 1244.078369,809.505249 
	C1243.984985,750.378418 1244.003296,691.251404 1244.005615,631.670044 
	C1253.391235,629.150757 1262.776367,627.085815 1272.581055,625.530151 
	C1273.000366,672.963196 1272.982178,719.886902 1273.044922,766.810608 
	C1273.048706,769.589722 1273.701904,772.367920 1274.052734,775.146545 
	C1265.859863,786.824280 1257.665649,798.501099 1249.475708,810.180847 
	C1248.452637,811.639832 1247.451294,813.114136 1246.153809,814.773682 
z"/>
<path fill="#07BA6A" opacity="1.000000" stroke="none" 
	d="
M1274.338623,774.954712 
	C1273.701904,772.367920 1273.048706,769.589722 1273.044922,766.810608 
	C1272.982178,719.886902 1273.000366,672.963196 1273.001953,625.578613 
	C1279.006714,624.249451 1284.986572,623.128174 1291.018677,622.572083 
	C1300.069092,621.737793 1309.156006,621.299988 1318.949707,620.645203 
	C1317.521240,676.270386 1302.739258,727.409973 1274.338623,774.954712 
z"/>
<path fill="#3795A0" opacity="1.000000" stroke="none" 
	d="
M1083.668213,952.966492 
	C1084.000732,1014.698181 1084.006714,1076.257935 1083.972656,1137.817627 
	C1083.971558,1139.943359 1083.569702,1142.068848 1083.188477,1144.574585 
	C1074.360474,1133.599121 1065.698608,1122.243530 1057.135986,1110.156982 
	C1057.490112,1107.305664 1057.966064,1105.185303 1057.967651,1103.064697 
	C1058.009277,1050.744873 1058.000488,998.425110 1058.000732,946.105286 
	C1066.445679,948.335022 1074.890503,950.564819 1083.668213,952.966492 
z"/>
<path fill="#5180BE" opacity="1.000000" stroke="none" 
	d="
M937.152039,1118.742676 
	C936.254883,1116.873657 935.083374,1114.790405 935.079346,1112.704834 
	C934.972595,1058.063232 934.986877,1003.421509 934.964966,948.296997 
	C944.012634,945.844055 953.075562,943.873962 962.563171,941.934998 
	C962.991882,982.220032 962.967346,1022.473938 963.072693,1062.727539 
	C963.078857,1065.075317 964.135742,1067.420532 965.062622,1069.987549 
	C957.817261,1083.539795 950.231628,1096.882080 942.593567,1110.194336 
	C940.967590,1113.028320 939.150635,1115.752686 937.152039,1118.742676 
z"/>
<path fill="#07BA6A" opacity="1.000000" stroke="none" 
	d="
M1278.327148,1253.565430 
	C1277.992920,1208.118530 1277.981445,1162.857178 1278.054443,1117.596069 
	C1278.057373,1115.780029 1278.859741,1113.965454 1279.693359,1112.059814 
	C1305.343140,1156.787109 1316.910400,1205.275879 1318.897461,1256.798218 
	C1305.312378,1257.670166 1291.993164,1255.640503 1278.327148,1253.565430 
z"/>
<path fill="#3B92A4" opacity="1.000000" stroke="none" 
	d="
M1057.645264,945.944702 
	C1058.000488,998.425110 1058.009277,1050.744873 1057.967651,1103.064697 
	C1057.966064,1105.185303 1057.490112,1107.305664 1057.059570,1109.825684 
	C1048.570923,1095.472900 1040.257935,1080.720703 1031.899170,1065.613647 
	C1032.235474,1063.004639 1032.947021,1060.750854 1032.951050,1058.495850 
	C1033.020996,1019.757874 1033.003784,981.019714 1033.005371,941.840820 
	C1041.100098,942.861450 1049.194946,944.322815 1057.645264,945.944702 
z"/>
<path fill="#8658F8" opacity="1.000000" stroke="none" 
	d="
M716.809631,623.258423 
	C716.793945,625.828125 716.055664,628.255798 716.051086,630.684937 
	C715.978455,669.147827 716.012146,707.611023 715.967285,746.074036 
	C715.964783,748.192993 715.488647,750.311401 715.054871,752.831543 
	C705.525696,735.909485 699.153687,717.433411 693.908936,698.544983 
	C687.396973,675.092468 683.757202,651.184387 683.032104,626.845154 
	C682.979065,625.063110 683.025208,623.278076 683.025208,620.870300 
	C694.499939,621.642151 705.464111,622.379639 716.809631,623.258423 
z"/>
</svg>